<?xml version="1.0" encoding="utf-8"?>
<!-- Generator: Adobe Illustrator 26.5.0, SVG Export Plug-In . SVG Version: 6.00 Build 0)  -->
<svg version="1.1" id="svg2" xmlns="http://www.w3.org/2000/svg" xmlns:xlink="http://www.w3.org/1999/xlink" x="0px" y="0px"
	 viewBox="0 0 61.6 61.6" style="enable-background:new 0 0 61.6 61.6;" xml:space="preserve">
<style type="text/css">
	.st0{fill:none;stroke:#1E26A6;stroke-width:3;stroke-linecap:round;stroke-linejoin:round;}
	.st1{fill:#E5262F;}
</style>
<g id="g8036">
	<path id="path2161" class="st0" d="M10.5,5.2c0,11.5,12.4,12.8,16.2,12.8s11.9,0,18.4,0s6-11.1,6-11.1"/>
	<path id="path5123" class="st0" d="M27.8,19.1L10.5,51.3l5.2,5.2L46,37.4V18.7"/>
	<path id="path7065" class="st0" d="M32.9,27.8v-2.5"/>
</g>
<path class="st1" d="M50.2,45.8h1.7l-2.5,5.7c0.1,2.2,0.5,3.2,1.1,3.2c0.2,0,0.4-0.1,0.6-0.3s0.3-0.5,0.3-0.9H52
	c-0.2,1.9-0.8,2.9-1.6,2.9c-0.3,0-0.6-0.2-0.8-0.5s-0.5-1.4-0.7-3.3c-1.4,2.5-3,3.8-4.8,3.8c-1,0-1.8-0.3-2.4-1s-0.9-1.6-0.9-2.8
	s0.3-2.2,0.9-3.3s1.3-2,2.1-2.7s1.8-1.1,2.8-1.1c0.7,0,1.3,0.2,1.7,0.7s0.7,1.2,0.9,2.1L50.2,45.8L50.2,45.8z M48.6,49.2
	c0-0.6-0.2-1.2-0.5-1.9s-0.8-1.1-1.4-1.1c-0.9,0-1.8,0.9-2.8,2.6s-1.4,3.3-1.4,4.6c0,0.7,0.2,1.3,0.5,1.8s0.7,0.6,1.3,0.6
	s1.1-0.3,1.5-0.9s1.1-1.8,1.9-3.6L48.6,49.2L48.6,49.2z"/>
</svg>
